<svg width="740" height="740" version="1.1" viewBox="0 0 195.79 195.79" xmlns="http://www.w3.org/2000/svg">
 <g transform="translate(-.56714 -.074994)">
  <rect x=".56714" y=".074994" width="195.79" height="195.79" fill="#fff" style="paint-order:stroke fill markers"/>
 </g>
 <g transform="translate(-2.3289 2.061)" stroke-width="3.6047" aria-label="h.">
  <path d="m24.021 169.41v-149.38h28.261v56.32q5.6522-7.0652 14.534-11.506 8.882-4.441 18.571-4.441 36.739 0 36.739 43.602v65.404h-28.665v-63.183q0-22.003-18.37-21.196-9.6894 0-16.149 5.854-6.2578 5.854-6.2578 14.332v64.192z" fill="#111827"/>
  <path d="m160.28 171.63q-7.8727 0-12.112-4.441-4.2391-4.441-4.2391-12.717 0-7.4689 4.441-12.112 4.6428-4.8447 11.91-4.8447 7.6708 0 11.91 4.441 4.2391 4.441 4.2391 12.516 0 7.6708-4.441 12.516-4.441 4.6428-11.708 4.6428z" fill="#1d4ed8"/>
 </g>
</svg>
