<svg xmlns="http://www.w3.org/2000/svg" version="1.1" xmlns:xlink="http://www.w3.org/1999/xlink" xmlns:svgjs="http://svgjs.com/svgjs" width="1000" height="1000"><rect width="1000" height="1000" rx="200" ry="200" fill="#ffffff"></rect><g transform="matrix(4.59676183666173,0,0,4.59676183666173,50.00001207409059,50.00001207409059)"><svg xmlns="http://www.w3.org/2000/svg" version="1.1" xmlns:xlink="http://www.w3.org/1999/xlink" xmlns:svgjs="http://svgjs.com/svgjs" width="195.79" height="195.79"><svg xmlns="http://www.w3.org/2000/svg" viewBox="0 0 195.79 195.79"><path fill="#fff" d="M0 0h195.79v195.79H0z" paint-order="stroke fill markers"></path><path fill="#111827" d="M21.692 171.471V22.091h28.261v56.32q5.652-7.065 14.534-11.506 8.882-4.441 18.571-4.441 36.739 0 36.739 43.602v65.404H91.132v-63.183q0-22.003-18.37-21.196-9.689 0-16.149 5.854-6.258 5.854-6.258 14.332v64.192z"></path><path fill="#1d4ed8" d="M157.951 173.691q-7.873 0-12.112-4.441t-4.239-12.717q0-7.469 4.441-12.112 4.643-4.845 11.91-4.845 7.671 0 11.91 4.441t4.239 12.516q0 7.671-4.441 12.516-4.441 4.643-11.708 4.643z"></path></svg></svg></g></svg>