<?xml version="1.0" standalone="no"?>
<!DOCTYPE svg PUBLIC "-//W3C//DTD SVG 20010904//EN"
 "http://www.w3.org/TR/2001/REC-SVG-20010904/DTD/svg10.dtd">
<svg version="1.0" xmlns="http://www.w3.org/2000/svg"
 width="700.000000pt" height="700.000000pt" viewBox="0 0 700.000000 700.000000"
 preserveAspectRatio="xMidYMid meet">
<metadata>
Created by potrace 1.14, written by Peter Selinger 2001-2017
</metadata>
<g transform="translate(0.000000,700.000000) scale(0.100000,-0.100000)"
fill="#000000" stroke="none">
<path d="M1795 6990 c-178 -18 -218 -25 -515 -94 -204 -48 -620 -195 -837
-297 -211 -98 -300 -164 -365 -269 -136 -217 -57 -533 166 -664 165 -97 317
-94 536 11 191 92 553 229 654 249 10 2 33 8 50 14 17 5 56 15 86 21 30 6 75
15 100 20 194 40 541 60 658 37 26 -5 63 -11 82 -14 362 -55 655 -317 897
-804 83 -167 217 -530 201 -545 -4 -4 -93 -12 -238 -20 -112 -6 -202 -14 -250
-20 -19 -3 -51 -7 -70 -9 -94 -12 -145 -20 -260 -43 -69 -13 -136 -27 -150
-29 -60 -11 -328 -87 -422 -120 -648 -225 -1208 -618 -1490 -1048 -106 -161
-212 -392 -293 -641 -31 -94 -98 -333 -109 -386 -3 -13 -16 -73 -29 -134 -14
-60 -28 -126 -31 -145 -3 -19 -12 -71 -20 -115 -19 -101 -57 -364 -71 -495 -3
-25 -7 -63 -10 -85 -12 -105 -24 -242 -30 -340 -3 -44 -7 -109 -10 -145 -9
-127 -15 -308 -20 -593 l-5 -287 293 5 c285 5 434 10 587 20 241 16 346 24
390 30 19 3 60 7 90 10 123 12 206 22 295 35 33 5 80 12 105 15 41 5 122 19
175 29 11 2 72 14 135 25 645 122 1156 324 1455 576 88 73 233 224 310 320 22
28 43 55 48 60 240 292 483 789 602 1228 30 113 27 101 59 242 21 94 31 153
61 360 2 17 7 57 10 90 3 33 7 74 10 90 2 17 7 89 11 160 3 72 8 139 9 150 1
11 3 30 4 43 0 12 7 22 15 22 14 0 246 -74 281 -90 11 -5 65 -28 120 -51 426
-181 738 -436 858 -700 40 -89 79 -226 92 -324 6 -43 6 -379 0 -450 -18 -215
-122 -610 -226 -860 -39 -95 -78 -182 -110 -248 -84 -172 -101 -260 -75 -385
36 -173 156 -309 324 -368 194 -67 408 1 541 173 60 78 190 359 278 598 90
248 183 595 217 810 2 17 7 48 11 70 3 22 8 56 11 75 13 80 12 627 -2 711 -7
46 -16 98 -18 114 -11 69 -68 271 -100 357 -100 267 -231 469 -443 683 -116
118 -162 159 -258 232 -410 311 -974 554 -1602 689 -14 3 -23 12 -23 23 0 34
-88 371 -131 501 -59 181 -141 384 -220 545 -70 143 -119 236 -130 245 -3 3
-9 12 -13 20 -14 30 -114 189 -126 200 -3 3 -18 24 -34 48 -84 123 -332 380
-456 473 -246 182 -508 297 -840 366 -117 24 -144 26 -425 28 -165 1 -331 -2
-370 -5z m1869 -3395 c-1 -116 -14 -404 -19 -417 -2 -7 -6 -45 -10 -83 -3 -39
-7 -81 -10 -95 -2 -14 -11 -68 -20 -120 -84 -499 -333 -1017 -635 -1320 -124
-125 -260 -199 -516 -285 -96 -32 -365 -106 -434 -119 -14 -3 -50 -10 -80 -16
-30 -6 -68 -13 -85 -16 -16 -2 -37 -7 -45 -9 -8 -2 -35 -7 -60 -10 -25 -3 -52
-7 -60 -10 -14 -4 -32 -7 -122 -20 -290 -42 -537 -63 -547 -47 -4 7 -2 62 5
124 6 62 15 142 18 178 12 121 58 424 81 540 3 14 8 39 11 55 23 129 83 361
130 501 46 141 133 346 159 374 8 9 15 20 15 24 0 16 65 93 139 164 249 240
601 432 999 546 151 44 361 87 487 101 28 4 61 8 75 10 14 3 102 8 195 11 94
4 171 7 172 8 1 1 37 1 80 1 l78 0 -1 -70z"/>
</g>
</svg>
