<?xml version="1.0" standalone="no"?>
<!DOCTYPE svg PUBLIC "-//W3C//DTD SVG 20010904//EN"
 "http://www.w3.org/TR/2001/REC-SVG-20010904/DTD/svg10.dtd">
<svg version="1.0" xmlns="http://www.w3.org/2000/svg"
 width="700.000000pt" height="700.000000pt" viewBox="0 0 700.000000 700.000000"
 preserveAspectRatio="xMidYMid meet">
<metadata>
Created by potrace 1.14, written by Peter Selinger 2001-2017
</metadata>
<g transform="translate(0.000000,700.000000) scale(0.100000,-0.100000)"
fill="#000000" stroke="none">
<path d="M3980 6261 l0 -730 -107 61 c-60 34 -128 72 -152 86 -25 14 -123 69
-218 123 -95 55 -175 99 -178 99 -3 0 -18 8 -33 19 -24 17 -343 199 -467 266
-27 15 -54 31 -60 36 -5 5 -14 9 -20 9 -7 0 -10 -415 -9 -1362 1 -750 2 -1364
3 -1365 1 -3 1504 898 1516 909 6 5 10 126 10 316 1 209 4 306 11 305 6 -1 76
-39 155 -84 79 -45 160 -91 179 -102 147 -82 539 -305 560 -318 8 -5 25 -14
37 -20 l21 -11 -1 -1494 c-1 -822 2 -1494 6 -1494 5 0 40 20 78 45 38 25 71
45 73 45 3 0 733 437 871 521 17 10 47 29 69 41 21 13 46 28 55 33 9 6 98 59
197 119 l181 108 0 764 c0 692 -1 765 -16 777 -14 12 -188 112 -342 197 -25
14 -235 133 -467 264 l-422 240 0 705 0 706 -92 55 c-50 30 -111 66 -134 80
-86 51 -177 105 -203 121 -14 9 -41 25 -58 35 -18 10 -218 131 -445 267 -227
137 -422 254 -433 260 -11 7 -42 26 -70 43 -28 17 -61 36 -73 43 l-22 12 0
-730z m735 -42 c242 -145 444 -266 450 -268 5 -2 22 -12 37 -23 l26 -18 0
-540 c0 -297 -3 -540 -7 -540 -4 0 -33 16 -65 35 -32 19 -60 35 -62 35 -2 0
-25 13 -52 29 -26 15 -68 39 -93 53 -24 14 -165 94 -314 178 -148 84 -290 164
-315 178 -25 13 -47 27 -50 29 -6 6 -7 1122 0 1119 3 -2 203 -122 445 -267z
m-1230 -735 c231 -130 437 -246 458 -257 l37 -21 0 -315 0 -316 -176 -105
c-97 -58 -192 -115 -212 -126 -21 -12 -157 -94 -304 -182 l-268 -161 0 875 0
874 23 -14 c12 -7 211 -121 442 -252z m2254 -1276 c269 -152 547 -310 601
-342 25 -14 64 -35 87 -47 23 -12 43 -29 45 -38 3 -13 2 -1132 -1 -1183 -1
-11 -71 -59 -203 -139 -112 -66 -322 -192 -467 -279 -145 -87 -270 -161 -277
-164 -12 -5 -14 170 -14 1155 0 1074 1 1161 16 1155 10 -4 105 -57 213 -118z"/>
<path d="M1099 5090 c-365 -220 -671 -404 -679 -408 -8 -4 -52 -29 -96 -56
l-81 -49 0 -764 0 -764 43 -29 c23 -17 45 -30 47 -30 2 0 132 -73 288 -161
156 -89 304 -173 329 -187 25 -14 113 -63 195 -110 83 -47 166 -94 185 -105
19 -11 63 -36 98 -55 l62 -36 0 -706 1 -705 297 -178 c163 -98 304 -183 312
-188 8 -5 218 -130 465 -278 l450 -269 5 727 5 728 140 -80 c77 -44 160 -91
185 -105 25 -13 74 -42 110 -62 36 -20 85 -49 110 -62 25 -14 185 -104 355
-201 171 -97 317 -178 325 -182 13 -5 15 150 15 1357 0 750 -4 1362 -8 1361
-8 -1 -420 -245 -487 -288 -19 -13 -255 -154 -525 -316 -269 -161 -494 -296
-500 -301 -6 -6 -10 -126 -10 -316 -1 -189 -5 -306 -10 -305 -6 1 -68 35 -140
75 -341 194 -605 344 -655 372 -31 17 -79 44 -107 61 l-52 29 1 1489 c0 819
-2 1490 -4 1493 -2 2 -303 -176 -669 -396z m387 -2418 c-3 -2 -110 55 -238
128 -128 73 -252 143 -275 156 -24 13 -62 35 -85 48 -24 13 -83 46 -131 75
-49 28 -90 51 -92 51 -7 0 -130 74 -135 81 -4 6 -5 1097 -1 1186 1 17 35 43
164 120 89 54 171 103 182 109 11 6 142 84 290 174 149 90 281 169 295 176
l25 14 3 -1157 c1 -636 0 -1158 -2 -1161z m2494 -546 l0 -874 -282 160 c-156
89 -308 175 -339 192 -30 17 -119 67 -197 111 l-142 80 1 315 0 315 477 287
c262 157 478 287 480 287 1 1 2 -392 2 -873z m-2150 18 c61 -35 494 -280 550
-312 95 -53 345 -196 350 -199 3 -3 5 -256 5 -563 l0 -558 -25 13 c-14 8 -230
137 -480 288 l-455 273 -2 542 c-1 298 1 542 5 542 4 0 27 -12 52 -26z"/>
</g>
</svg>
