<?xml version="1.0" standalone="no"?>
<!DOCTYPE svg PUBLIC "-//W3C//DTD SVG 20010904//EN"
 "http://www.w3.org/TR/2001/REC-SVG-20010904/DTD/svg10.dtd">
<svg version="1.0" xmlns="http://www.w3.org/2000/svg"
 width="700.000000pt" height="700.000000pt" viewBox="0 0 700.000000 700.000000"
 preserveAspectRatio="xMidYMid meet">
<metadata>
Created by potrace 1.14, written by Peter Selinger 2001-2017
</metadata>
<g transform="translate(0.000000,700.000000) scale(0.100000,-0.100000)"
fill="#000000" stroke="none">
<path d="M2099 6646 c-2 -2 -46 -7 -98 -11 -52 -3 -97 -8 -100 -9 -3 -2 -28
-6 -56 -10 -27 -3 -61 -8 -75 -11 -14 -3 -41 -8 -60 -11 -31 -5 -82 -16 -145
-30 -11 -3 -30 -7 -42 -10 -30 -6 -258 -72 -312 -90 -59 -20 -231 -83 -256
-94 -11 -5 -54 -23 -95 -40 -172 -72 -317 -151 -365 -198 -88 -88 -137 -201
-137 -317 0 -235 178 -425 413 -443 83 -6 151 10 254 58 143 68 208 97 300
133 83 32 269 96 298 101 7 2 31 8 54 14 53 16 227 52 273 58 19 2 46 6 60 9
92 17 276 22 395 11 409 -39 675 -252 909 -729 80 -163 109 -234 170 -420 28
-83 28 -82 -77 -83 -104 -2 -284 -13 -307 -19 -8 -2 -42 -7 -75 -10 -84 -8
-174 -22 -290 -45 -55 -11 -109 -22 -120 -24 -11 -2 -63 -16 -115 -30 -52 -15
-102 -29 -110 -30 -51 -12 -251 -84 -327 -117 -23 -11 -44 -19 -47 -19 -6 0
-261 -125 -286 -140 -8 -5 -58 -35 -110 -67 -298 -179 -571 -426 -700 -633
-19 -30 -41 -64 -48 -75 -13 -21 -117 -233 -144 -295 -20 -43 -107 -300 -113
-329 -2 -12 -6 -25 -9 -29 -3 -5 -7 -19 -9 -33 -3 -13 -12 -49 -21 -79 -8 -30
-17 -66 -20 -80 -2 -14 -10 -47 -16 -75 -6 -27 -13 -59 -16 -70 -2 -11 -8 -42
-14 -70 -6 -27 -12 -61 -15 -75 -7 -34 -35 -199 -40 -230 -7 -52 -15 -107 -21
-160 -4 -30 -8 -66 -10 -80 -2 -14 -6 -50 -9 -80 -3 -30 -8 -68 -10 -85 -2
-16 -6 -59 -10 -95 -3 -36 -8 -85 -10 -110 -4 -47 -13 -178 -20 -315 -3 -44
-7 -214 -10 -377 l-5 -298 297 5 c290 5 405 9 548 20 39 3 102 7 140 10 39 3
111 10 160 15 50 6 110 12 135 15 64 6 140 14 175 20 17 3 48 7 70 10 104 16
230 35 259 41 11 2 57 11 101 20 44 8 89 17 100 19 192 40 560 149 700 208
380 162 634 371 892 738 171 242 341 592 423 869 12 41 28 95 35 120 77 255
137 666 139 957 1 67 4 83 16 83 8 0 56 -13 105 -29 432 -139 799 -371 953
-599 58 -85 110 -204 127 -287 15 -71 25 -130 31 -175 7 -60 7 -272 0 -305 -2
-12 -7 -50 -10 -86 -5 -53 -27 -166 -61 -325 -27 -122 -149 -448 -239 -637
-62 -131 -75 -176 -76 -257 0 -298 299 -515 581 -420 132 45 207 118 288 285
197 402 326 814 385 1225 21 150 28 465 13 614 -34 346 -157 669 -353 933 -32
43 -108 128 -169 188 -284 284 -679 515 -1155 675 -110 37 -302 92 -369 106
-138 29 -160 39 -161 73 0 60 -148 558 -200 675 -9 23 -30 70 -45 106 -240
564 -608 992 -1025 1193 -175 84 -401 153 -565 173 -33 3 -69 9 -80 11 -25 6
-410 14 -416 9z m1538 -3010 c6 -6 5 -236 -2 -308 -2 -24 -6 -74 -9 -113 -4
-38 -8 -81 -11 -95 -2 -14 -6 -45 -9 -70 -3 -25 -8 -56 -11 -70 -3 -14 -8 -41
-11 -60 -22 -127 -90 -359 -144 -495 -126 -316 -352 -641 -530 -762 -138 -94
-421 -196 -730 -264 -127 -28 -369 -70 -485 -84 -27 -3 -61 -8 -75 -10 -39 -6
-208 -24 -284 -31 l-68 -5 6 68 c9 94 17 172 22 208 2 17 6 53 10 80 3 28 7
61 9 74 3 13 7 45 10 70 4 25 10 69 15 96 5 28 11 66 14 85 31 218 128 575
205 759 73 175 139 264 279 382 247 207 574 372 877 445 6 1 46 11 90 22 76
19 137 32 180 37 11 2 54 8 95 14 99 15 134 19 270 27 63 3 116 7 117 8 5 4
166 -3 170 -8z"/>
</g>
</svg>
