<?xml version="1.0" encoding="UTF-8" standalone="no"?>
<!-- Created with Inkscape (http://www.inkscape.org/) -->

<svg
   width="840.64087"
   height="204.77507"
   viewBox="0 0 222.41954 54.18007"
   version="1.1"
   id="svg5"
   inkscape:version="1.2.1 (9c6d41e410, 2022-07-14)"
   sodipodi:docname="base.svg"
   xmlns:inkscape="http://www.inkscape.org/namespaces/inkscape"
   xmlns:sodipodi="http://sodipodi.sourceforge.net/DTD/sodipodi-0.dtd"
   xmlns="http://www.w3.org/2000/svg"
   xmlns:svg="http://www.w3.org/2000/svg">
  <sodipodi:namedview
     id="namedview7"
     pagecolor="#ffffff"
     bordercolor="#999999"
     borderopacity="1"
     inkscape:pageshadow="0"
     inkscape:pageopacity="0"
     inkscape:pagecheckerboard="0"
     inkscape:document-units="px"
     showgrid="false"
     units="px"
     inkscape:zoom="0.67712943"
     inkscape:cx="524.272"
     inkscape:cy="162.45048"
     inkscape:window-width="1920"
     inkscape:window-height="1021"
     inkscape:window-x="0"
     inkscape:window-y="0"
     inkscape:window-maximized="1"
     inkscape:current-layer="text239"
     lock-margins="true"
     fit-margin-top="0"
     fit-margin-left="0"
     fit-margin-right="0"
     fit-margin-bottom="0"
     inkscape:showpageshadow="0"
     inkscape:deskcolor="#d1d1d1"
     showguides="false">
    <inkscape:grid
       type="xygrid"
       id="grid67257"
       originx="1.1934863"
       originy="-122.22007" />
  </sodipodi:namedview>
  <defs
     id="defs2" />
  <g
     aria-label="husen."
     id="text239"
     style="font-size:72.1439px;line-height:1.25;font-family:'Lexend Deca';-inkscape-font-specification:'Lexend Deca';fill:#111827;stroke-width:1.28827"
     sodipodi:insensitive="true">
    <path
       id="path1727"
       style="font-weight:600;-inkscape-font-specification:'Lexend Deca Semi-Bold'"
       d="m 0,0 v 53.386402 h 10.244335 v -22.94175 c 0,-2.020027 0.745584,-3.727388 2.236556,-5.122168 1.539069,-1.394781 3.463138,-2.092379 5.771741,-2.092379 4.376725,-0.192384 6.564973,2.332797 6.564973,7.575248 V 53.386402 H 35.06194 V 30.01212 c 0,-10.388711 -4.376496,-15.583544 -13.129947,-15.583544 -2.308602,0 -4.521101,0.52939 -6.63732,1.5875 -2.116219,1.058109 -3.84783,2.428538 -5.194515,4.111893 V 0 Z m 142.55615,14.356746 c -3.75148,0.0481 -7.09397,0.937636 -10.02781,2.669087 -2.93385,1.683356 -5.24232,4.040329 -6.92568,7.070369 -1.63526,3.030041 -2.45308,6.516997 -2.45308,10.46086 0,3.799575 0.84155,7.166309 2.52491,10.100158 1.73145,2.933849 4.13641,5.242319 7.21455,6.925675 3.12623,1.683356 6.75766,2.52491 10.89391,2.52491 2.64527,0 5.29016,-0.480888 7.93543,-1.442806 2.64528,-0.961917 5.02598,-2.380848 7.1422,-4.256587 l -4.90565,-6.853328 c -1.58715,1.298589 -3.07832,2.21238 -4.47311,2.741434 -1.39478,0.529055 -2.93341,0.793234 -4.61677,0.793234 -3.17432,0 -5.79599,-0.769318 -7.86412,-2.308386 -2.02003,-1.539069 -3.31822,-3.607095 -3.89537,-6.204273 h 27.19834 l 0.0718,-3.174483 c 0.0962,-3.655287 -0.62514,-6.901799 -2.16421,-9.739456 -1.53906,-2.885753 -3.67933,-5.146238 -6.42079,-6.781498 -2.69337,-1.635263 -5.77168,-2.476817 -9.23458,-2.52491 z m -39.60688,0.07183 c -2.64528,0 -5.098221,0.481405 -7.358728,1.443322 -2.21241,0.961918 -3.992007,2.308612 -5.338692,4.040064 -1.346685,1.731452 -2.020031,3.751492 -2.020031,6.060095 0,2.837657 0.890056,5.242098 2.669604,7.214029 2.068123,2.116219 5.506577,3.799845 10.316167,5.050338 3.22242,0.865726 5.26671,1.587058 6.13244,2.164208 0.86573,0.577151 1.29863,1.394971 1.29863,2.453081 0,1.106205 -0.4329,1.995745 -1.29863,2.669087 -0.86573,0.625247 -2.04421,0.937927 -3.53518,0.937927 -1.82765,0 -3.65523,-0.336931 -5.482873,-1.010274 -1.827644,-0.721438 -3.462767,-1.875673 -4.905644,-3.462837 l -6.420796,5.482869 c 1.683356,2.068123 3.895855,3.703763 6.63732,4.90616 2.789562,1.154301 5.963834,1.73116 9.522933,1.73116 2.88575,0 5.48265,-0.528873 7.79126,-1.586983 2.30859,-1.058109 4.11244,-2.50129 5.41103,-4.328934 1.34669,-1.827644 2.02004,-3.919404 2.02004,-6.276103 0,-2.693369 -0.79357,-4.905869 -2.38074,-6.63732 -1.92384,-1.971932 -5.17035,-3.559069 -9.73945,-4.761466 -1.77955,-0.480959 -3.19848,-0.913862 -4.25659,-1.298629 -1.05811,-0.384767 -1.82743,-0.721699 -2.308388,-1.010274 -1.010013,-0.721439 -1.515153,-1.63523 -1.515153,-2.741435 0,-2.308603 1.707362,-3.462837 5.122171,-3.462837 1.44288,0 3.03001,0.432902 4.76146,1.298628 1.73145,0.81763 3.27061,1.851644 4.61729,3.102136 l 5.48287,-6.060095 c -1.82764,-1.827643 -4.08813,-3.270308 -6.7815,-4.328417 -2.64527,-1.05811 -5.45887,-1.5875 -8.44082,-1.5875 z m 86.93319,0 c -2.3567,0 -4.61719,0.553124 -6.7815,1.65933 -2.11623,1.05811 -3.82358,2.429055 -5.12217,4.11241 l -0.21652,-4.97799 h -9.81129 v 38.164076 h 10.24433 v -22.94175 c 0,-2.020027 0.74559,-3.727388 2.23656,-5.122168 1.53907,-1.394781 3.46263,-2.092379 5.77122,-2.092379 4.37673,-0.192384 6.56549,2.332797 6.56549,7.575248 v 22.581049 h 10.24434 V 30.01212 c 0,-10.388711 -4.37701,-15.583544 -13.13046,-15.583544 z m -145.297587,0.79375 v 23.518976 c 0,4.809589 1.20222,8.584975 3.607015,11.32644 2.404794,2.693369 5.675557,4.040063 9.811803,4.040063 2.500986,0 4.809457,-0.528873 6.925675,-1.586983 2.11622,-1.106205 3.823579,-2.57312 5.122168,-4.400765 l 0.216524,5.266345 h 9.739457 V 15.222326 H 69.76318 V 38.09173 c 0,2.164314 -0.745584,3.943911 -2.236556,5.338691 -1.442877,1.394781 -3.270458,2.092379 -5.482869,2.092379 -2.260507,0 -4.040104,-0.745583 -5.338692,-2.236556 -1.250493,-1.490972 -1.875855,-3.558999 -1.875855,-6.204272 V 15.222326 Z m 98.115457,7.935949 c 2.16431,0 3.99241,0.649096 5.48338,1.947685 1.53907,1.298588 2.38063,2.934228 2.52491,4.90616 v 0.288354 h -17.53123 c 1.05812,-4.761492 4.23239,-7.142199 9.52294,-7.142199 z" />
    <path
       d="m 216.64804,54.180069 q -2.81361,0 -4.32863,-1.587166 -1.51502,-1.587166 -1.51502,-4.545065 0,-2.669325 1.58716,-4.328634 1.65931,-1.731454 4.25649,-1.731454 2.74147,0 4.25649,1.587166 1.51503,1.587166 1.51503,4.472922 0,2.741468 -1.58717,4.472921 -1.58717,1.65931 -4.18435,1.65931 z"
       style="fill:#1d4ed8"
       id="path1737" />
  </g>
</svg>
