<?xml version="1.0" encoding="UTF-8" standalone="no"?>
<!-- Created with Inkscape (http://www.inkscape.org/) -->

<svg
   width="1001.9149"
   height="331.84625"
   viewBox="0 0 265.08996 87.800986"
   version="1.1"
   id="svg5"
   inkscape:version="1.1.2 (0a00cf5339, 2022-02-04, custom)"
   sodipodi:docname="base.svg"
   xmlns:inkscape="http://www.inkscape.org/namespaces/inkscape"
   xmlns:sodipodi="http://sodipodi.sourceforge.net/DTD/sodipodi-0.dtd"
   xmlns="http://www.w3.org/2000/svg"
   xmlns:svg="http://www.w3.org/2000/svg">
  <sodipodi:namedview
     id="namedview7"
     pagecolor="#ffffff"
     bordercolor="#999999"
     borderopacity="1"
     inkscape:pageshadow="0"
     inkscape:pageopacity="0"
     inkscape:pagecheckerboard="0"
     inkscape:document-units="px"
     showgrid="false"
     units="px"
     inkscape:zoom="0.58781078"
     inkscape:cx="522.27691"
     inkscape:cy="188.83628"
     inkscape:window-width="1920"
     inkscape:window-height="1021"
     inkscape:window-x="0"
     inkscape:window-y="0"
     inkscape:window-maximized="1"
     inkscape:current-layer="text1845"
     lock-margins="true"
     fit-margin-top="0"
     fit-margin-left="0"
     fit-margin-right="0"
     fit-margin-bottom="0">
    <inkscape:grid
       type="xygrid"
       id="grid67257"
       originx="34.90913"
       originy="-107.31179" />
  </sodipodi:namedview>
  <defs
     id="defs2" />
  <g
     inkscape:label="Icon"
     inkscape:groupmode="layer"
     id="layer1"
     style="display:inline"
     transform="translate(34.909133,-107.31179)"
     sodipodi:insensitive="true">
    <g
       aria-label="husen."
       id="text2382"
       style="font-size:99.2188px;line-height:1.25;font-family:'Lexend Deca';-inkscape-font-specification:'Lexend Deca';stroke-width:0.264583"
       transform="matrix(0.73389615,0,0,0.73389615,8.8791774,40.238171)">
      <path
         fill="none"
         stroke="#2563eb"
         stroke-width="4.86302"
         d="M 6.8319476,95.688564 V 120.60346 L 28.187479,132.70464 V 108.50286 Z M 28.187479,132.70464 v 48.40544 l 21.354927,-12.8131 V 144.80586 Z M 6.8319476,120.60346 -14.523581,108.50223 v 38.43923 L 6.8325616,134.12838 Z m -42.7104476,0.71185 -21.35553,12.81307 v 23.49056 l 21.35553,12.10118 z m 0,48.40481 v 24.20304 l 21.355531,12.81306 v -24.91429 z m 21.355531,12.10181 21.3549166,12.10123 v -38.43925 l -21.3555286,12.81307 z"
         id="path1090" />
    </g>
  </g>
  <g
     inkscape:groupmode="layer"
     id="layer3"
     inkscape:label="Text"
     sodipodi:insensitive="true">
    <g
       aria-label="husen"
       id="text1845"
       style="font-size:71.4029px;line-height:1.25;font-family:'Lexend Deca';-inkscape-font-specification:'Lexend Deca';stroke-width:0.238009">
      <path
         id="path20143"
         style="font-weight:600;font-family:Outfit;-inkscape-font-specification:'Outfit Semi-Bold';stroke-width:0.210273"
         d="m 105.42974,20.749452 v 45.608139 h 8.26387 V 48.883885 c 0,-1.219585 0.25229,-2.292055 0.75696,-3.217257 0.5467,-0.925201 1.28263,-1.639725 2.20783,-2.144379 0.92521,-0.504657 1.97673,-0.75695 3.15425,-0.75695 1.80835,0 3.28021,0.567433 4.41569,1.702904 1.13547,1.135475 1.7029,2.607333 1.7029,4.415682 v 17.473706 h 8.26388 V 47.054517 c 0,-2.313001 -0.5046,-4.35229 -1.5139,-6.118583 -1.00932,-1.766292 -2.41833,-3.154357 -4.22667,-4.163667 -1.76629,-1.009311 -3.80558,-1.513894 -6.11859,-1.513894 -2.313,0 -4.3737,0.504583 -6.18204,1.513894 -0.92392,0.527954 -1.74351,1.166331 -2.46031,1.912914 V 20.749452 Z m 79.6726,14.382914 c -2.39711,0 -4.47875,0.399388 -6.24505,1.198424 -1.76629,0.799037 -3.13341,1.913406 -4.10066,3.343263 -0.9252,1.429854 -1.38743,3.112108 -1.38743,5.046619 0,1.850401 0.35749,3.364157 1.07242,4.541685 0.75698,1.135473 1.7238,2.039902 2.90132,2.712776 1.17754,0.630818 2.39755,1.156351 3.6592,1.576897 1.30368,0.37849 2.5442,0.735983 3.72173,1.072418 1.17753,0.294382 2.12385,0.672821 2.83878,1.135421 0.75698,0.4626 1.13541,1.114736 1.13541,1.955829 0,0.756982 -0.35748,1.324412 -1.0724,1.702902 -0.67288,0.378492 -1.68251,0.567939 -3.02825,0.567939 -1.68218,0 -3.21689,-0.294643 -4.6047,-0.883408 -1.3878,-0.588764 -2.60736,-1.471789 -3.65873,-2.649316 l -4.92061,4.983616 c 1.00932,1.177528 2.20793,2.186699 3.59573,3.027791 1.3878,0.799036 2.90201,1.429768 4.54214,1.892369 1.68218,0.4626 3.38539,0.693943 5.10962,0.693943 3.70081,0 6.62357,-0.862076 8.76836,-2.586312 2.14478,-1.766292 3.2168,-4.142122 3.2168,-7.127998 0,-1.850402 -0.37844,-3.364612 -1.13543,-4.542141 -0.71493,-1.177529 -1.6608,-2.123853 -2.83832,-2.838781 -1.13547,-0.714928 -2.35504,-1.26141 -3.65873,-1.639902 -1.26164,-0.420545 -2.48166,-0.778035 -3.65919,-1.072418 -1.17753,-0.336437 -2.14434,-0.714874 -2.90133,-1.135421 -0.71493,-0.420545 -1.07242,-1.009381 -1.07242,-1.766362 0,-0.672875 0.31515,-1.198407 0.94595,-1.5769 0.67289,-0.378489 1.61922,-0.567937 2.83878,-0.567937 1.34576,0 2.58627,0.252293 3.72175,0.756948 1.17753,0.504654 2.22904,1.324832 3.15425,2.460307 l 4.98316,-4.983618 c -1.34575,-1.766292 -3.04895,-3.091057 -5.10963,-3.974204 -2.01862,-0.883146 -4.28925,-1.324429 -6.81252,-1.324429 z m 31.09922,0.063 c -2.98587,0 -5.69825,0.714981 -8.13742,2.144836 -2.43916,1.3878 -4.37371,3.279994 -5.80357,5.677106 -1.3878,2.355056 -2.08182,5.046478 -2.08182,8.074411 0,3.069982 0.71497,5.803761 2.14483,8.200871 1.4719,2.397111 3.44835,4.289306 5.92957,5.677106 2.48121,1.345747 5.3202,2.018831 8.51634,2.018831 2.48123,0 4.77326,-0.441739 6.87599,-1.324886 2.14478,-0.883146 3.95272,-2.186504 5.42464,-3.910743 l -4.85715,-4.857613 c -0.9252,1.051365 -2.01862,1.850597 -3.28026,2.397305 -1.26164,0.504655 -2.6702,0.756947 -4.22622,0.756947 -1.72424,0 -3.23844,-0.35749 -4.54214,-1.072418 -1.30369,-0.756982 -2.31286,-1.808505 -3.02779,-3.154252 -0.26878,-0.554358 -0.48321,-1.145954 -0.64463,-1.774123 l 22.28155,-0.05524 c 0.16822,-0.714929 0.27342,-1.34566 0.31548,-1.892368 0.0841,-0.588764 0.126,-1.156652 0.126,-1.70336 0,-2.901767 -0.65168,-5.487993 -1.95538,-7.75894 -1.26163,-2.313004 -3.02814,-4.121403 -5.29908,-5.425095 -2.2289,-1.345745 -4.81512,-2.018373 -7.75894,-2.018373 z m 37.21826,0.063 c -2.313,0 -4.39466,0.504583 -6.24505,1.513893 -0.97179,0.542398 -1.83313,1.201398 -2.58632,1.974547 v -2.857499 h -8.26387 v 30.468276 h 8.26387 V 48.883885 c 0,-1.219585 0.2523,-2.292055 0.75696,-3.217257 0.54671,-0.925201 1.28264,-1.639725 2.20783,-2.144379 0.92521,-0.504657 1.97672,-0.75695 3.15426,-0.75695 1.80834,0 3.28019,0.567433 4.41568,1.702904 1.13548,1.135475 1.70335,2.607333 1.70335,4.415682 v 17.473706 h 8.26344 V 47.054517 c 0,-2.060672 -0.50461,-3.973816 -1.51391,-5.740109 -1.00931,-1.808347 -2.39691,-3.259257 -4.1632,-4.352676 -1.76631,-1.135474 -3.76415,-1.703359 -5.99304,-1.703359 z m -113.35814,0.630941 v 17.662716 c 0,2.649437 0.58884,4.983371 1.76636,7.001993 1.17753,2.018618 2.79649,3.595676 4.85717,4.731149 2.10272,1.135474 4.49996,1.703359 7.19145,1.703359 2.6915,0 5.06778,-0.546939 7.12846,-1.640357 2.10272,-1.135472 3.72168,-2.712072 4.85715,-4.730693 1.17752,-2.01862 1.76636,-4.373958 1.76636,-7.065451 V 35.889314 h -8.26387 v 17.473709 c 0,1.892454 -0.48364,3.364314 -1.45089,4.415677 -0.96726,1.051365 -2.31297,1.576897 -4.03721,1.576897 -1.13548,0 -2.1237,-0.231341 -2.96479,-0.693944 -0.84109,-0.4626 -1.47182,-1.135227 -1.89237,-2.018373 -0.42054,-0.9252 -0.63094,-2.018621 -0.63094,-3.280257 V 35.889314 Z m 76.13988,6.18204 c 1.55602,0 2.85983,0.336089 3.9112,1.008961 1.09342,0.630818 1.91359,1.556195 2.4603,2.775778 0.28332,0.586871 0.5074,1.242668 0.67386,1.965873 l -14.7486,0.04337 c 0.14765,-0.557791 0.33945,-1.08048 0.57525,-1.567767 0.67285,-1.345747 1.61873,-2.375865 2.83831,-3.090791 1.21958,-0.756982 2.64955,-1.135424 4.28968,-1.135422 z" />
    </g>
  </g>
</svg>
