<?xml version="1.0" encoding="UTF-8" standalone="no"?>
<!-- Created with Inkscape (http://www.inkscape.org/) -->

<svg
   width="1053.001"
   height="275.25015"
   viewBox="0 0 278.6065 72.826603"
   version="1.1"
   id="svg5"
   inkscape:version="1.1.2 (0a00cf5339, 2022-02-04, custom)"
   sodipodi:docname="base.svg"
   xmlns:inkscape="http://www.inkscape.org/namespaces/inkscape"
   xmlns:sodipodi="http://sodipodi.sourceforge.net/DTD/sodipodi-0.dtd"
   xmlns="http://www.w3.org/2000/svg"
   xmlns:svg="http://www.w3.org/2000/svg">
  <sodipodi:namedview
     id="namedview7"
     pagecolor="#ffffff"
     bordercolor="#999999"
     borderopacity="1"
     inkscape:pageshadow="0"
     inkscape:pageopacity="0"
     inkscape:pagecheckerboard="0"
     inkscape:document-units="px"
     showgrid="false"
     units="px"
     inkscape:zoom="1.0257813"
     inkscape:cx="585.40744"
     inkscape:cy="143.3054"
     inkscape:window-width="1920"
     inkscape:window-height="1021"
     inkscape:window-x="0"
     inkscape:window-y="0"
     inkscape:window-maximized="1"
     inkscape:current-layer="text2382"
     lock-margins="true"
     fit-margin-top="0"
     fit-margin-left="0"
     fit-margin-right="0"
     fit-margin-bottom="0">
    <inkscape:grid
       type="xygrid"
       id="grid67257"
       originx="-65.632565"
       originy="-119.12992" />
  </sodipodi:namedview>
  <defs
     id="defs2" />
  <g
     inkscape:label="Outfit"
     inkscape:groupmode="layer"
     id="layer1"
     style="display:inline"
     transform="translate(-65.632567,-119.12992)"
     sodipodi:insensitive="true">
    <g
       aria-label="husen."
       id="text2382"
       style="font-size:99.2188px;line-height:1.25;font-family:'Lexend Deca';-inkscape-font-specification:'Lexend Deca';stroke-width:0.264583">
      <path
         d="M 97.878678,190.86511 V 163.3815 q 0,-4.2664 -2.678908,-6.94531 -2.678907,-2.67891 -6.945316,-2.67891 -2.778126,0 -4.96094,1.19063 -2.182814,1.19062 -3.472658,3.37343 -1.190626,2.18282 -1.190626,5.06016 l -5.060159,-2.57969 q 0,-5.65547 2.381251,-9.82266 2.381252,-4.26641 6.548441,-6.64766 4.266409,-2.38125 9.723443,-2.38125 5.457034,0 9.624224,2.38125 4.26641,2.38125 6.64766,6.54844 2.38125,4.16719 2.38125,9.62423 v 30.36095 z m -32.246111,0 V 119.12992 H 78.63023 v 71.73519 z"
         style="font-weight:600;font-family:Outfit;-inkscape-font-specification:'Outfit Semi-Bold'"
         id="path20003" />
      <path
         d="m 141.83263,191.8573 q -6.35,0 -11.31094,-2.67891 -4.86172,-2.67891 -7.63985,-7.44141 -2.77812,-4.7625 -2.77812,-11.01328 v -27.78127 h 13.09688 v 27.48361 q 0,2.97656 0.99219,5.15938 0.99218,2.08359 2.97656,3.175 1.98438,1.09141 4.66328,1.09141 4.06798,0 6.35001,-2.48047 2.28203,-2.48048 2.28203,-6.94532 v -27.48361 h 12.99766 v 27.78127 q 0,6.35 -2.77812,11.1125 -2.67891,4.7625 -7.63985,7.44141 -4.86172,2.57969 -11.21173,2.57969 z"
         style="font-weight:600;font-family:Outfit;-inkscape-font-specification:'Outfit Semi-Bold'"
         id="path20005" />
      <path
         d="m 190.2514,191.95652 q -4.06797,0 -8.03672,-1.09141 -3.86953,-1.0914 -7.14375,-2.97656 -3.27423,-1.98438 -5.65548,-4.7625 l 7.73907,-7.83829 q 2.48047,2.77813 5.75469,4.16719 3.27422,1.38906 7.24297,1.38906 3.175,0 4.76251,-0.89297 1.68672,-0.89297 1.68672,-2.6789 0,-1.98438 -1.78594,-3.07579 -1.68672,-1.0914 -4.46485,-1.78594 -2.77813,-0.79375 -5.85391,-1.68671 -2.97656,-0.99219 -5.75469,-2.48047 -2.77813,-1.58751 -4.56406,-4.26641 -1.68672,-2.77813 -1.68672,-7.14376 0,-4.56406 2.18281,-7.9375 2.28203,-3.37344 6.44922,-5.2586 4.16719,-1.88516 9.82266,-1.88516 5.95313,0 10.71563,2.0836 4.86173,2.08359 8.03673,6.25078 l -7.83829,7.83829 q -2.18281,-2.67891 -4.96094,-3.86953 -2.67891,-1.19063 -5.85391,-1.19063 -2.87734,0 -4.46484,0.89297 -1.48829,0.89297 -1.48829,2.48047 0,1.78594 1.68672,2.77813 1.78594,0.99218 4.56407,1.78593 2.77813,0.69454 5.75469,1.68672 3.07578,0.89297 5.75469,2.57969 2.77813,1.68672 4.46485,4.46485 1.78593,2.77813 1.78593,7.14375 0,7.04454 -5.06015,11.21173 -5.06016,4.06797 -13.79142,4.06797 z"
         style="font-weight:600;font-family:Outfit;-inkscape-font-specification:'Outfit Semi-Bold'"
         id="path20007" />
      <path
         d="m 240.7538,191.8573 q -7.54063,0 -13.39454,-3.175 -5.85391,-3.27422 -9.32656,-8.92969 -3.37344,-5.65548 -3.37344,-12.89845 0,-7.14375 3.27422,-12.7 3.37344,-5.65548 9.12813,-8.9297 5.75469,-3.37344 12.79922,-3.37344 6.94532,0 12.20391,3.17501 5.35782,3.07578 8.33438,8.53281 3.07579,5.35782 3.07579,12.20392 0,1.28984 -0.19844,2.6789 -0.0992,1.28985 -0.49609,2.97657 l -40.28284,0.0992 V 161.794 l 34.23049,-0.0992 -5.2586,4.06798 q -0.19844,-4.26641 -1.5875,-7.14376 -1.28984,-2.87734 -3.86953,-4.36563 -2.48047,-1.5875 -6.15157,-1.5875 -3.86953,0 -6.74688,1.78594 -2.87734,1.68672 -4.46484,4.86172 -1.48828,3.07579 -1.48828,7.34219 0,4.36563 1.5875,7.63985 1.68672,3.175 4.7625,4.96094 3.07578,1.68672 7.14375,1.68672 3.6711,0 6.64766,-1.19062 2.97657,-1.28985 5.15938,-3.77032 l 7.63985,7.63985 q -3.47266,4.06797 -8.53282,6.15157 -4.96094,2.08359 -10.81485,2.08359 z"
         style="font-weight:600;font-family:Outfit;-inkscape-font-specification:'Outfit Semi-Bold'"
         id="path20009" />
      <path
         d="M 303.75777,190.86511 V 163.3815 q 0,-4.2664 -2.67891,-6.94531 -2.67891,-2.67891 -6.94532,-2.67891 -2.77812,0 -4.96094,1.19063 -2.18281,1.19062 -3.47265,3.37343 -1.19063,2.18282 -1.19063,5.06016 l -5.06016,-2.57969 q 0,-5.65547 2.38125,-9.82266 2.48047,-4.26641 6.74688,-6.64766 4.36563,-2.38125 9.82266,-2.38125 5.2586,0 9.42579,2.67891 4.16719,2.57969 6.54844,6.8461 2.38125,4.16719 2.38125,9.02891 v 30.36095 z m -32.24611,0 v -47.92268 h 12.99766 v 47.92268 z"
         style="font-weight:600;font-family:Outfit;-inkscape-font-specification:'Outfit Semi-Bold'"
         id="path20011" />
      <path
         d="m 336.20233,191.8573 q -3.57187,0 -5.8539,-2.38125 -2.28204,-2.38125 -2.28204,-5.85391 0,-3.47266 2.28204,-5.85391 2.28203,-2.38125 5.8539,-2.38125 3.47266,0 5.7547,2.38125 2.28203,2.38125 2.28203,5.85391 0,3.47266 -2.28203,5.85391 -2.28204,2.38125 -5.7547,2.38125 z"
         style="font-weight:600;font-family:Outfit;-inkscape-font-specification:'Outfit Semi-Bold';fill:#2563eb;fill-opacity:1"
         id="path20013" />
    </g>
  </g>
</svg>
