<svg xmlns="http://www.w3.org/2000/svg" viewBox="0 0 239.007 68.426"><path fill="none" stroke="#2563eb" stroke-width="2.782" d="M38.034 2.461v14.251l12.215 6.922V9.791zm12.215 21.173v27.688l12.215-7.329V30.556zm-12.215-6.922L25.818 9.79v21.987l12.216-7.329zm-24.43.407-12.216 7.33v13.437l12.215 6.922zm0 27.688v13.844l12.215 7.329V51.729zm12.215 6.922 12.215 6.922V36.664l-12.215 7.329z"/><path d="M79.347 11.062V56.67h8.264V39.197c0-1.22.252-2.292.757-3.217a5.69 5.69 0 0 1 2.208-2.144c.925-.505 1.977-.757 3.154-.757 1.808 0 3.28.567 4.416 1.703s1.703 2.607 1.703 4.416v17.474h8.264V37.368c0-2.313-.505-4.352-1.514-6.119s-2.418-3.154-4.227-4.164c-1.766-1.009-3.806-1.514-6.119-1.514s-4.374.505-6.182 1.514a10.826 10.826 0 0 0-2.46 1.913V11.062zm79.673 14.383c-2.397 0-4.479.399-6.245 1.198s-3.133 1.913-4.101 3.343c-.925 1.43-1.387 3.112-1.387 5.047 0 1.85.357 3.364 1.072 4.542a8.53 8.53 0 0 0 2.901 2.713 23.42 23.42 0 0 0 3.659 1.577l3.722 1.072c1.178.294 2.124.673 2.839 1.135.757.463 1.135 1.115 1.135 1.956 0 .757-.357 1.324-1.072 1.703-.673.378-1.683.568-3.028.568-1.682 0-3.217-.295-4.605-.883s-2.607-1.472-3.659-2.649l-4.921 4.984a14.79 14.79 0 0 0 3.596 3.028 19.851 19.851 0 0 0 4.542 1.892c1.682.463 3.385.694 5.11.694 3.701 0 6.624-.862 8.768-2.586 2.145-1.766 3.217-4.142 3.217-7.128 0-1.85-.378-3.365-1.135-4.542a8.335 8.335 0 0 0-2.838-2.839 14.33 14.33 0 0 0-3.659-1.64l-3.659-1.072c-1.178-.336-2.144-.715-2.901-1.135-.715-.421-1.072-1.009-1.072-1.766 0-.673.315-1.198.946-1.577.673-.378 1.619-.568 2.839-.568 1.346 0 2.586.252 3.722.757 1.178.505 2.229 1.325 3.154 2.46l4.983-4.984a12.51 12.51 0 0 0-5.11-3.974c-2.019-.883-4.289-1.324-6.813-1.324zm31.099.063c-2.986 0-5.698.715-8.137 2.145a15.66 15.66 0 0 0-5.804 5.677c-1.388 2.355-2.082 5.046-2.082 8.074 0 3.07.715 5.804 2.145 8.201 1.472 2.397 3.448 4.289 5.93 5.677 2.481 1.346 5.32 2.019 8.516 2.019 2.481 0 4.773-.442 6.876-1.325 2.145-.883 3.953-2.187 5.425-3.911l-4.857-4.858a9.192 9.192 0 0 1-3.28 2.397c-1.262.505-2.67.757-4.226.757-1.724 0-3.238-.357-4.542-1.072a7.81 7.81 0 0 1-3.028-3.154 9.44 9.44 0 0 1-.645-1.774l22.282-.055c.168-.715.273-1.346.315-1.892a12.05 12.05 0 0 0 .126-1.703c0-2.902-.652-5.488-1.955-7.759-1.262-2.313-3.028-4.121-5.299-5.425-2.229-1.346-4.815-2.018-7.759-2.018zm37.218.063c-2.313 0-4.395.505-6.245 1.514a11.182 11.182 0 0 0-2.586 1.975v-2.857h-8.264v30.468h8.264V39.197c0-1.22.252-2.292.757-3.217a5.69 5.69 0 0 1 2.208-2.144c.925-.505 1.977-.757 3.154-.757 1.808 0 3.28.567 4.416 1.703s1.703 2.607 1.703 4.416v17.474h8.263V37.368c0-2.061-.505-3.974-1.514-5.74a11.81 11.81 0 0 0-4.163-4.353c-1.766-1.135-3.764-1.703-5.993-1.703zm-113.358.631v17.663c0 2.649.589 4.983 1.766 7.002s2.796 3.596 4.857 4.731c2.103 1.135 4.5 1.703 7.191 1.703s5.068-.547 7.128-1.64c2.103-1.135 3.722-2.712 4.857-4.731 1.178-2.019 1.766-4.374 1.766-7.065V26.202h-8.264v17.474c0 1.892-.484 3.364-1.451 4.416s-2.313 1.577-4.037 1.577c-1.135 0-2.124-.231-2.965-.694s-1.472-1.135-1.892-2.018c-.421-.925-.631-2.019-.631-3.28V26.202zm76.14 6.182c1.556 0 2.86.336 3.911 1.009 1.093.631 1.914 1.556 2.46 2.776.283.587.507 1.243.674 1.966l-14.749.043a8.73 8.73 0 0 1 .575-1.568c.673-1.346 1.619-2.376 2.838-3.091 1.22-.757 2.65-1.135 4.29-1.135z"/></svg>