<svg xmlns="http://www.w3.org/2000/svg" viewBox="0 0 278.61 72.827">
  <path d="M32.246 71.74V44.256q0-4.266-2.679-6.945-2.679-2.679-6.945-2.679-2.778 0-4.961 1.191-2.183 1.191-3.473 3.373-1.191 2.183-1.191 5.06l-5.06-2.58q0-5.655 2.381-9.823 2.381-4.266 6.548-6.648 4.266-2.381 9.723-2.381 5.457 0 9.624 2.381 4.266 2.381 6.648 6.548 2.381 4.167 2.381 9.624v30.361zM0 71.74V.005h12.998V71.74zm76.197.99q-6.35 0-11.311-2.679-4.862-2.679-7.64-7.441-2.778-4.762-2.778-11.013V23.816h13.097V51.3q0 2.977.992 5.159.992 2.084 2.977 3.175 1.984 1.091 4.663 1.091 4.068 0 6.35-2.481t2.282-6.945V23.816h12.998v27.781q0 6.35-2.778 11.112-2.679 4.762-7.64 7.441-4.862 2.58-11.212 2.58zm48.42.1q-4.068 0-8.037-1.091-3.869-1.091-7.144-2.977-3.274-1.984-5.655-4.762l7.739-7.838q2.481 2.778 5.755 4.167 3.274 1.389 7.243 1.389 3.175 0 4.763-.893 1.687-.893 1.687-2.679 0-1.984-1.786-3.076-1.687-1.091-4.465-1.786-2.778-.794-5.854-1.687-2.977-.992-5.755-2.481-2.778-1.588-4.564-4.266-1.687-2.778-1.687-7.144 0-4.564 2.183-7.937 2.282-3.373 6.449-5.259 4.167-1.885 9.823-1.885 5.953 0 10.716 2.084 4.862 2.084 8.037 6.251l-7.838 7.838q-2.183-2.679-4.961-3.869-2.679-1.191-5.854-1.191-2.877 0-4.465.893-1.488.893-1.488 2.481 0 1.786 1.687 2.778 1.786.992 4.564 1.786 2.778.695 5.755 1.687 3.076.893 5.755 2.58 2.778 1.687 4.465 4.465 1.786 2.778 1.786 7.144 0 7.044-5.06 11.212-5.06 4.068-13.791 4.068zm50.5-.1q-7.541 0-13.395-3.175-5.854-3.274-9.327-8.93-3.373-5.655-3.373-12.898 0-7.144 3.274-12.7 3.373-5.655 9.128-8.93 5.755-3.373 12.799-3.373 6.945 0 12.204 3.175 5.358 3.076 8.334 8.533 3.076 5.358 3.076 12.204 0 1.29-.198 2.679-.099 1.29-.496 2.977l-40.283.099v-9.723l34.23-.099-5.259 4.068q-.198-4.266-1.588-7.144-1.29-2.877-3.869-4.366-2.481-1.588-6.152-1.588-3.869 0-6.747 1.786-2.877 1.687-4.465 4.862-1.488 3.076-1.488 7.342 0 4.366 1.587 7.64 1.687 3.175 4.762 4.961 3.076 1.687 7.144 1.687 3.671 0 6.648-1.191 2.977-1.29 5.159-3.77l7.64 7.64q-3.473 4.068-8.533 6.152-4.961 2.084-10.815 2.084zm63.01-.99V44.256q0-4.266-2.679-6.945-2.679-2.679-6.945-2.679-2.778 0-4.961 1.191-2.183 1.191-3.473 3.373-1.191 2.183-1.191 5.06l-5.06-2.58q0-5.655 2.381-9.823 2.481-4.266 6.747-6.648 4.366-2.381 9.823-2.381 5.259 0 9.426 2.679 4.167 2.58 6.548 6.846 2.381 4.167 2.381 9.029V71.74zm-32.246 0V23.817h12.998V71.74z"/>
  <path fill="#2563eb" d="M270.567 72.73q-3.572 0-5.854-2.381t-2.282-5.854q0-3.473 2.282-5.854 2.282-2.381 5.854-2.381 3.473 0 5.755 2.381t2.282 5.854q0 3.473-2.282 5.854-2.282 2.381-5.755 2.381z"/>
</svg>
